# xmcd CD database file
#
# Track frame offsets:
#	150
#	36565
#	67772
#	99467
#	124584
#	156453
#
# Disc length: 2509 seconds
#
# Revision: 0
# Processed by: cddbd v1.5.2PL0 Copyright (c) Steve Scherf et al.
# Submitted via: CDex 1.70beta2
#
DISCID=4b09cb06
DTITLE=Free Electro（近藤等則） - OVER THE RAINBOMB
DYEAR=2003
DGENRE=Jazz
TTITLE0=Fire makes darkness 2003
TTITLE1=大人の戦争わかんない -Kids don't make the war-
TTITLE2=Over the rainbomb
TTITLE3=Eternal voice
TTITLE4=Mixed tears
TTITLE5=Beyond the sorrow
EXTD=YEAR: 2003
EXTT0=
EXTT1=
EXTT2=
EXTT3=
EXTT4=
EXTT5=
PLAYORDER=
